<svg id="Ebene_1" data-name="Ebene 1" xmlns="http://www.w3.org/2000/svg" viewBox="0 0 1008 599.02"><defs><style>.cls-1{fill:#fff;}</style></defs><path class="cls-1" d="M732,523.11h49.89c23.91,0,37,11.83,37,32.91s-13.63,32.92-37,32.92H732ZM840,556c0-32.14-23.4-52.2-55.8-52.2H710.9v180H732V608.22h41.14l39.6,75.61h23.4l-41.65-76.38C821.22,603.6,840,584.57,840,556m-313.24-52.2,58.37,180h32.66l58.37-180H653.26L602.86,664h-3.08L549.63,503.82Z" transform="translate(-179.37 -84.81)"/><path class="cls-1" d="M192.78,311.75h106L316.28,335V438.8l-17.46,23h-106Zm-13.41-13.41V475.49H305.65L330,443.61V330.23l-24.3-31.89ZM352.73,475.49h13.41V298.34H352.73Zm74.15-177.15-38,31.89v43L415.74,396h90.6l18.23,15.44v25.81L495,461.83H431.18l-28.85-24.55v-16.2H388.92v22.27l37.2,32.14H500l38-31.88V405.14L510.9,382.36H420.55l-18.22-15.69V336.3l29.36-24.55h63.77l29.11,24.55v14.93H538v-21l-37.2-31.89Zm197.9,0-17.71,23-17.72-23H538v13.41h44.79L600.49,335V475.49H613.9V335l17.46-23.29h45.56V298.34ZM703,311.75H803.71l8.1,18.48v18l-22.53,32.14H703Zm-13.41-13.41V475.49h13.16V393.75h67.82L806,475.49h15.19L785,393.75h11.13l29.11-41.25V327.44l-12.66-29.1ZM848,475.49h13.42V298.34H848ZM910.5,298.34l-24.29,32.14V443.35l24.29,32.14H1016l22-28.85-10.88-8.35-17.71,23.54H917.34l-17.47-23.29V335.29l17.47-23.54h92.37l17.72,23.54,10.88-8.1-22-28.85Zm224.73,0-17.71,23-17.72-23h-51.37v13.41h44.79L1110.94,335V475.49h13.41V335l17.46-23.29h45.56V298.34Z" transform="translate(-179.37 -84.81)"/><path class="cls-1" d="M562.13,84.81l-17.72,23-17.71-23H475.32V98.22h44.8l17.71,23.28V262h13.42V121.5l17.46-23.28h45.55V84.81Zm183.12,0V166H645V84.81H631.62V262H645V179.71H745.25V262h13.41V84.81Zm63.73,0L783.93,117V229.82L809,262h85.79V248.29h-79l-18-23.28V180.72h77.95V167.06H797.84v-45.3l18-23.54h79V84.81Z" transform="translate(-179.37 -84.81)"/></svg>