<?xml version="1.0" encoding="utf-8"?>
<svg version="1.1" id="Ebene_1" xmlns="http://www.w3.org/2000/svg" xmlns:xlink="http://www.w3.org/1999/xlink" x="0px" y="0px"
	 viewBox="0 0 147.2 87.5" style="enable-background:new 0 0 147.2 87.5;" xml:space="preserve">
<style type="text/css">
	.fwhite{fill:#FFFFFF;}
</style>
<g>
	<path class="fwhite" d="M80.7,64H88c3.5,0,5.4,1.7,5.4,4.8s-2,4.8-5.4,4.8h-7.3V64z M96.5,68.8c0-4.7-3.4-7.6-8.2-7.6H77.6v26.3h3.1
		v-11h6l5.8,11h3.4l-6.1-11.2C93.7,75.8,96.5,73,96.5,68.8 M50.7,61.2l8.5,26.3H64l8.5-26.3h-3.3l-7.4,23.4h-0.5l-7.3-23.4H50.7z"/>
</g>
<path class="fwhite" d="M2,33.1h15.5l2.6,3.4v15.2l-2.6,3.4H2V33.1z M0,31.2v25.9h18.4l3.5-4.7V35.8l-3.5-4.7H0z M25.3,57.1h2V31.2h-2
	V57.1z M36.1,31.2l-5.5,4.7v6.3l3.9,3.3h13.2l2.7,2.3v3.8l-4.3,3.6h-9.3l-4.2-3.6v-2.4h-2v3.3l5.4,4.7h10.8l5.5-4.7v-5.6l-4-3.3
	H35.2l-2.7-2.3v-4.4l4.3-3.6h9.3l4.3,3.6v2.2h2v-3.1l-5.4-4.7H36.1z M65.1,31.2l-2.6,3.4l-2.6-3.4h-7.5v2h6.5l2.6,3.4v20.5h2V36.5
	l2.5-3.4h6.7v-2H65.1z M76.5,33.1h14.7l1.2,2.7v2.6l-3.3,4.7H76.5V33.1z M74.5,31.2v25.9h1.9V45.1h9.9l5.2,11.9h2.2l-5.3-11.9h1.6
	l4.3-6v-3.7l-1.8-4.3H74.5z M97.7,57.1h2V31.2h-2V57.1z M106.8,31.2l-3.5,4.7v16.5l3.5,4.7h15.4l3.2-4.2l-1.6-1.2l-2.6,3.4h-13.5
	l-2.6-3.4V36.6l2.6-3.4h13.5l2.6,3.4l1.6-1.2l-3.2-4.2H106.8z M139.6,31.2l-2.6,3.4l-2.6-3.4h-7.5v2h6.5l2.6,3.4v20.5h2V36.5
	l2.6-3.4h6.7v-2H139.6z"/>
<path class="fwhite" d="M56.7,0l-2.6,3.4L51.6,0h-7.5v2h6.5l2.6,3.4v20.5h2V5.4L57.7,2h6.7V0H56.7z M82.8,0v11.9H68.2V0h-2v25.9h2v-12
	h14.6v12h2V0H82.8z M90.6,0L87,4.7v16.5l3.7,4.7h12.5v-2H91.6L89,20.5V14h11.4v-2H89V5.4L91.6,2h11.5V0H90.6z"/>
</svg>
